<?xml version="1.0" encoding="utf-8"?>
<!-- Generator: Adobe Illustrator 23.1.0, SVG Export Plug-In . SVG Version: 6.00 Build 0)  -->
<svg version="1.1" id="Capa_1" xmlns="http://www.w3.org/2000/svg" xmlns:xlink="http://www.w3.org/1999/xlink" x="0px" y="0px"
	 viewBox="0 0 435.9 465.3" style="enable-background:new 0 0 435.9 465.3;" xml:space="preserve">
<style type="text/css">
	.st0{fill:#CC6D72;}
	.st1{fill:#AAC7E4;}
</style>
<title>Recurso 2</title>
<g>
	<g id="Capa_1-2">
		<path class="st0" d="M251.3,250c-0.1,3.5-0.3,7-0.3,10.5c0,66.1,0,132.3,0,198.4c0,6.3,0,6.3-6.5,6.3c-10.7,0-21.3-0.3-32,0.1
			c-5,0.2-5.6-1.7-5.6-5.9c0.1-44.5,0.1-89,0.1-133.4c0-24.2-0.1-48.3,0.1-72.5c0-3.9-0.6-5.4-5.1-5.4c-50.8,0.2-101.6,0.2-152.4,0
			c-4.7,0-5.7,1.4-5.7,5.9c0.1,68.3,0,136.6,0.2,204.9c0,4.8-0.8,6.7-6.2,6.5c-10.8-0.5-21.7-0.3-32.5,0c-4,0.1-5.4-0.9-5.4-5.2
			c0.2-21.3,0.1-42.6,0.1-64c0-129.1,0-258.2,0-387.3c0-6.7,0-6.7,6.7-6.7c10.7,0,21.3,0.2,32-0.1C43.1,1.9,44,3.4,44,7.4
			c-0.1,60.3-0.1,120.6-0.1,180.9c0,8.1-0.6,7.1,6.8,7.1c50,0,100,0,149.9,0.1c4.8,0,6.4-0.9,6.4-6.2c-0.2-60.5-0.1-120.9-0.3-181.4
			c0-4.9,1.2-6.2,6.1-6c12.6,0.3,25.3,0.1,38,0.1c0.2,13.1,0.3,26.1,0.5,39.2c-0.1,1.3-0.3,2.6-0.3,4c0,53.7,0,107.3,0,161
			c0,1.3,0.2,2.6,0.3,4C250.8,223.4,250.9,236.7,251.3,250z"/>
		<path class="st1" d="M251.3,250c-0.4-13.3-0.5-26.6,0-39.9c13.8-0.5,27.4,1.5,41.3,0.3c18.1-1.6,35.9-3.9,52.9-10.6
			c19.3-7.6,34.6-19.6,43.1-39c6-13.7,6.8-28.2,6.4-43c-0.8-31.7-17.1-55-46.5-66.6c-18.3-7.2-37.5-9.7-56.9-10.9
			c-13.5-0.9-26.9,1.1-40.4,1c-0.1-13.1-0.3-26.1-0.5-39.2c3.8-1.1,7.8-1.7,11.7-1.8c12.2,0,24.4-0.6,36.5,0.1
			c31.7,1.8,62.2,8.1,89.1,26.4c26.4,17.9,41.2,43,45.9,74.4c3.4,22.9,2.2,45.3-5.1,67.3c-8.9,26.6-26,46.5-50.3,60.2
			c-21.4,12.1-44.8,18-69.2,20.8c-15.8,1.8-31.5,1.7-47.3,1.6C258.6,251,254.9,250.4,251.3,250z"/>
	</g>
</g>
</svg>
